<?xml version="1.0" encoding="UTF-8"?>
<svg width="237px" height="32px" viewBox="0 0 237 32" version="1.1" xmlns="http://www.w3.org/2000/svg" xmlns:xlink="http://www.w3.org/1999/xlink">
    <title>BI_COSBALL_2</title>
    <defs>
        <linearGradient x1="26.2232417%" y1="20.1334635%" x2="74.6431837%" y2="79.5178385%" id="linearGradient-1">
            <stop stop-color="#5310CD" offset="0%"></stop>
            <stop stop-color="#FFA435" offset="100%"></stop>
        </linearGradient>
    </defs>
    <g id="02_Component" stroke="none" stroke-width="1" fill="none" fill-rule="evenodd">
        <g id="system-guide_Logo" transform="translate(-66.000000, -273.000000)">
            <g id="Group" transform="translate(66.000000, 273.000000)">
                <g id="BI_COSBALL_2">
                    <path d="M15.9568772,0 C21.3648557,0 26.1444853,2.68757143 29.0304511,6.79867444 L27.0436532,8.18713976 C24.5961363,4.70100324 20.5429161,2.42203323 15.9568772,2.42203323 C8.48313837,2.42203323 2.42447599,8.47459128 2.42447599,15.9408 C2.42447599,23.4070087 8.48313837,29.4595668 15.9568772,29.4595668 C20.5433523,29.4595668 24.5969072,27.1801633 27.0443514,23.6934656 L29.0304981,25.0828586 C26.1445372,29.1939994 21.3648851,31.8816 15.9568772,31.8816 C7.14413726,31.8816 0,24.7446607 0,15.9408 C0,7.13693926 7.14413726,0 15.9568772,0 Z M15.9568772,3.39635877 C20.2125012,3.39635877 23.9736821,5.51118839 26.244783,8.74621383 L24.2581129,10.1348613 C22.4254743,7.52469957 19.3906414,5.818392 15.9568772,5.818392 C10.3607873,5.818392 5.82426017,10.3503484 5.82426017,15.9408 C5.82426017,21.5312516 10.3607873,26.063208 15.9568772,26.063208 C19.3910021,26.063208 22.4261119,24.3565419 24.2586904,21.7459161 L26.2449749,23.1351127 C23.973894,26.3702925 20.2126211,28.4852412 15.9568772,28.4852412 C9.02178622,28.4852412 3.39978418,22.8689036 3.39978418,15.9408 C3.39978418,9.01269641 9.02178622,3.39635877 15.9568772,3.39635877 Z M15.9568772,6.77484 C19.0661814,6.77484 21.8142507,8.31991181 23.4737283,10.6834313 L21.4661427,12.0885151 C20.2500213,10.3560194 18.2358496,9.22341534 15.9568772,9.22341534 C12.2432264,9.22341534 9.23271766,12.2308909 9.23271766,15.9408 C9.23271766,19.6507091 12.2432264,22.6581847 15.9568772,22.6581847 C18.235919,22.6581847 20.250144,21.5255116 21.4662538,19.7929266 L23.4744222,21.1971802 C21.8150169,23.5612574 19.0666148,25.10676 15.9568772,25.10676 C10.8895517,25.10676 6.7816728,21.0030199 6.7816728,15.9408 C6.7816728,10.8785801 10.8895517,6.77484 15.9568772,6.77484 Z M15.9568772,10.1446567 C17.9233224,10.1446567 19.6612784,11.1219497 20.7106144,12.6168686 L18.7024965,14.0211941 C18.0964612,13.1577268 17.0926581,12.593232 15.9568772,12.593232 C14.1062018,12.593232 12.605933,14.0919892 12.605933,15.9408 C12.605933,17.7896108 14.1062018,19.288368 15.9568772,19.288368 C17.0922206,19.288368 18.0956879,18.724308 18.7017959,17.8614036 L20.7103436,19.2651173 C19.6609793,20.7598185 17.9231532,21.7369433 15.9568772,21.7369433 C12.7525271,21.7369433 10.1548881,19.1419216 10.1548881,15.9408 C10.1548881,12.7396784 12.7525271,10.1446567 15.9568772,10.1446567 Z" id="SYMBOL" fill="url(#linearGradient-1)"></path>
                    <path d="M113.237771,0.1296 C115.295409,0.1296 117.353047,0.463966118 119.410684,1.13269835 C120.372697,1.4132853 121.516908,1.88518154 122.843319,2.54838706 L123.246709,2.753088 L123.246709,6.64973929 C122.482443,6.08388894 121.710829,5.58233976 120.931866,5.14509176 C120.152904,4.70784376 119.381289,4.34775718 118.617024,4.064832 C116.853335,3.34465882 115.06025,2.98457224 113.237771,2.98457224 C110.944975,2.98457224 108.451559,3.48612141 106.952423,4.48921976 C105.423892,5.51803859 104.659627,6.73976094 104.659627,8.15438682 C104.659627,10.2120245 106.393922,11.7552527 109.862511,12.7840715 C111.479226,13.2727605 113.686042,13.7421591 115.28806,14.1922673 C116.890078,14.6423755 118.514142,15.0989139 120.160252,15.5618824 C123.658236,17.0279492 125.407228,19.2141892 125.407228,22.1206024 C125.407228,24.9498541 124.157948,27.2261158 121.659388,28.9493873 C119.458074,30.4475041 116.766802,31.2530856 113.585574,31.3661319 L113.584998,31.3799718 L112.451434,31.3799718 C106.797791,31.3799718 104.178706,30.1634362 97.4047476,26.9218139 L95.6031928,26.0559639 L95.0405476,25.7891976 L94.8709519,25.7099404 C91.9759552,29.3892404 87.4828872,31.752 82.4379671,31.752 C77.5343275,31.752 73.1520641,29.5197233 70.251938,26.0159309 C69.8969817,26.1974126 69.5311841,26.3881316 69.1560074,26.5868177 L66.3327429,28.0944721 L65.8621882,28.3401392 C65.0984633,28.7358357 64.4321526,29.0651753 63.7845114,29.3639527 C61.2241868,30.5451115 57.7721335,31.2060481 55.5036328,31.350442 L55.2513239,31.3643603 C55.2109317,31.3662462 55.1374768,31.3678745 55.030683,31.3693213 L53.0902,31.3776 L53.0910957,31.3799718 L53.0222,31.3786 L52.7790494,31.3799718 C50.3507083,31.2800466 46.7403304,30.1223714 43.8830819,28.1946307 C39.6956676,25.3694479 37.1952,21.1568253 37.1952,15.6155251 C37.1952,10.0044886 39.2783918,5.84740545 42.9561881,3.20132551 C45.8330188,1.13151978 49.5312357,0.1296 53.0910957,0.1296 C57.0029255,0.1296 60.4046926,1.23844857 63.2418895,3.4539244 L63.4261231,3.59998088 L61.5601169,5.91858853 C59.229135,4.04262365 56.4255081,3.10582588 53.0910957,3.10582588 C50.1142649,3.10582588 47.0197461,3.94419196 44.6943744,5.61723712 C41.802128,7.69813407 40.1714259,10.9522581 40.1714259,15.6155251 C40.1714259,20.1107045 42.1410918,23.4290676 45.5476644,25.7274287 C47.9824402,27.3701337 51.1146068,28.3571183 52.9613951,28.4021362 L53.0152,28.4026 L55.0346873,28.3930454 C55.0740376,28.3924789 55.1008304,28.3919187 55.1125167,28.3913731 C57.0334084,28.3016876 60.2022491,27.7388931 62.5377604,26.6614478 L62.9034339,26.49026 C63.458303,26.2268098 64.0457808,25.9315146 64.7197928,25.579584 L65.1858307,25.3341932 L67.4659949,24.1145972 C67.8412396,23.9143854 68.2082833,23.7212769 68.5679312,23.5351537 C67.3301287,21.2816039 66.6267671,18.6933414 66.6267671,15.9408 C66.6267671,7.20851536 73.7056824,0.1296 82.4379671,0.1296 C91.1702517,0.1296 98.2491671,7.20851536 98.2491671,15.9408 C98.2491671,18.5522047 97.616086,21.0157455 96.4950288,23.1863172 L98.9766812,24.3742052 C105.097241,27.2862016 107.319005,28.3692835 112.21347,28.4029334 L112.451434,28.4037459 L113.038375,28.4047579 C115.318744,28.3743454 117.838002,27.9699426 119.390843,26.9817713 C121.183927,25.8500706 122.080469,24.3711435 122.080469,22.5449901 C122.080469,20.3330296 120.375569,18.6483388 116.96577,17.4909176 C115.31966,17.0536696 113.105495,16.6035614 111.518174,16.1405929 C109.930854,15.6776245 108.343533,15.2275162 106.756213,14.7902682 C103.317018,13.4013628 101.597421,11.2665638 101.597421,8.38587106 C101.597421,5.96814682 102.68503,4.00053082 104.860247,2.48302306 C107.094253,0.914074353 109.886761,0.1296 113.237771,0.1296 Z M142.971187,0.677308235 C150.085274,0.677308235 152.993549,3.52560227 152.993549,8.33209845 C152.993549,11.4065239 151.722844,13.6804519 148.233555,14.866933 L147.937625,14.963283 L147.937625,15.185806 C151.785497,15.8978795 154.291087,18.0786046 154.291087,22.4845594 C154.291087,27.4268713 150.920462,31.0367046 144.136745,31.1597124 L143.776555,31.1629553 L130.264264,31.1629553 L130.264264,0.677308235 L142.971187,0.677308235 Z M172.87349,0.677308235 L184.776734,31.1629553 L179.856469,31.1629553 L170.348389,5.82672217 L160.84031,31.1629553 L155.841205,31.1629553 L167.841224,0.677308235 L172.87349,0.677308235 Z M193.253402,0.677308235 L193.253402,27.3355602 L210.612028,27.3355602 L210.612028,31.1629553 L188.652028,31.1629553 L188.652028,0.677308235 L193.253402,0.677308235 Z M219.088696,0.677308235 L219.088696,27.3355602 L236.447322,27.3355602 L236.447322,31.1629553 L214.487322,31.1629553 L214.487322,0.677308235 L219.088696,0.677308235 Z M82.7660312,22.4512941 C79.3624931,22.4512941 76.5508157,23.1171639 73.035747,24.6770182 C75.3792282,27.1986782 78.7244224,28.7757741 82.4379671,28.7757741 C86.2581923,28.7757741 89.6885995,27.106765 92.0397965,24.4581389 C88.5779498,23.0381784 85.9470236,22.4512941 82.7660312,22.4512941 Z M143.790988,17.6162094 L134.574476,17.6162094 L134.574476,27.4336212 L143.239643,27.4336212 C147.311228,27.4336212 150.189193,25.7554311 150.189193,22.4410058 C150.189193,19.0007162 147.952058,17.6162094 143.790988,17.6162094 Z M82.4379671,3.10582588 C75.3494066,3.10582588 69.6029929,8.85223953 69.6029929,15.9408 C69.6029929,18.2227001 70.1984823,20.3655161 71.2425383,22.2223254 C75.3885281,20.3096991 78.6803814,19.4750682 82.7660312,19.4750682 C86.5923437,19.4750682 89.6770939,20.2137909 93.7767623,21.9576224 C94.732216,20.1633917 95.2729412,18.1152424 95.2729412,15.9408 C95.2729412,8.85223953 89.5265275,3.10582588 82.4379671,3.10582588 Z M142.812423,4.32668496 L134.574476,4.32668496 L134.574476,13.110685 L142.543966,13.110685 C146.033896,13.110685 148.673715,12.0334019 148.673715,8.677251 C148.673715,5.36253402 146.660294,4.32668496 142.812423,4.32668496 Z" id="TITLE" fill="#000000" fill-rule="nonzero"></path>
                </g>
            </g>
        </g>
    </g>
</svg>