<?xml version="1.0" encoding="UTF-8"?>
<svg width="180px" height="90px" viewBox="0 0 180 90" version="1.1" xmlns="http://www.w3.org/2000/svg" xmlns:xlink="http://www.w3.org/1999/xlink">
    <title>title_coaball@1x</title>
    <defs>
        <linearGradient x1="25.9764956%" y1="20.1334635%" x2="74.8989211%" y2="79.5178385%" id="linearGradient-1">
            <stop stop-color="#5310CD" offset="0%"></stop>
            <stop stop-color="#FFA435" offset="100%"></stop>
        </linearGradient>
    </defs>
    <g id="Page-1" stroke="none" stroke-width="1" fill="none" fill-rule="evenodd">
        <g id="01_이메일-폼_web" transform="translate(-310.000000, -36.000000)">
            <g id="title_coaball" transform="translate(310.000000, 36.000000)">
                <g id="Img-/-img_symbol_grey" transform="translate(49.000000, 0.000000)" fill="#EAEAED">
                    <path d="M42.2259744,0 C57.7599641,0 71.4737737,7.71601564 79.6710177,19.4882315 L73.9009838,23.443466 C66.9637894,13.5099516 55.3642732,7 42.2259744,7 C20.9865376,7 3.76857216,24.0131795 3.76857216,45 C3.76857216,65.9868205 20.9865376,83 42.2259744,83 C55.0657729,83 66.4359163,76.7824984 73.4209642,67.2282603 L79.1928422,71.1852529 C70.9465584,82.5773986 57.4617487,90 42.2259744,90 C17.1248218,90 -3.2236828,69.8528137 -3.2236828,45 C-3.2236828,20.1471863 17.1248218,0 42.2259744,0 Z M42.2259744,9.73873874 C54.4209886,9.73873874 65.1872755,15.7830924 71.6238331,25.0053016 L66.6447071,28.4187492 C61.4263496,20.9201252 52.6598972,16 42.7254212,16 C26.7268844,16 13.7575078,28.7598846 13.7575078,44.5 C13.7575078,60.2401154 26.7268844,73 42.7254212,73 C52.060821,73 60.3648198,68.6553773 65.6624779,61.9091708 L71.1425596,65.6673557 C64.6584015,74.5097085 54.1219464,80.2612613 42.2259744,80.2612613 C22.5173078,80.2612613 6.54027682,64.4742569 6.54027682,45 C6.54027682,25.5257431 22.5173078,9.73873874 42.2259744,9.73873874 Z M42.7254212,18.6929134 C51.7301047,18.6929134 59.6750355,23.1569629 64.3986296,29.9583934 L58.2999935,34.1391432 C54.870089,29.2189233 49.1732491,26 42.7254212,26 C32.2436212,26 23.7464435,34.5065898 23.7464435,45 C23.7464435,55.4934102 32.2436212,64 42.7254212,64 C48.876998,64 54.3450111,61.070074 57.813014,56.5281266 L63.4137062,60.3674436 C58.6131897,66.4172659 51.1310216,70.3070866 42.7254212,70.3070866 C28.2385572,70.3070866 16.4946335,58.7528604 16.4946335,44.5 C16.4946335,30.2471396 28.2385572,18.6929134 42.7254212,18.6929134 Z M42.7254212,28.6057143 C48.2814201,28.6057143 53.1911825,31.3756467 56.1519841,35.6113442 L50.350276,39.5881644 C48.6877377,36.8380935 45.6712734,35 42.2259744,35 C36.9850744,35 32.7364855,39.2532949 32.7364855,44.5 C32.7364855,49.7467051 36.9850744,54 42.2259744,54 C45.0787796,54 47.6375624,52.7397463 49.3771284,50.7450152 L55.6615189,55.0540524 C52.6653204,58.9121015 47.9849227,61.3942857 42.7254212,61.3942857 C33.6811252,61.3942857 26.3492747,54.054314 26.3492747,45 C26.3492747,35.945686 33.6811252,28.6057143 42.7254212,28.6057143 Z" id="SYMBOL"></path>
                </g>
                <g id="logo" transform="translate(0.000000, 26.000000)">
                    <path d="M12.0741598,0 C16.1663374,0 19.7830364,2.02326205 21.9667562,5.11816655 L20.4631898,6.16308891 C18.6112114,3.53881583 15.5442672,1.82327103 12.0741598,1.82327103 C6.41897328,1.82327103 1.83453881,6.37954779 1.83453881,12 C1.83453881,17.6204522 6.41897328,22.176729 12.0741598,22.176729 C15.5442672,22.176729 18.6112114,20.4611842 20.4631898,17.8369111 L21.9667562,18.8818335 C19.7830364,21.976738 16.1663374,24 12.0741598,24 C5.40578548,24 0,18.627417 0,12 C0,5.372583 5.40578548,0 12.0741598,0 Z M12.0741598,2.55672897 C15.2942212,2.55672897 18.1401641,4.14868213 19.858658,6.58388471 L18.3558462,7.6298765 C16.9691723,5.66470199 14.6726224,4.38 12.0741598,4.38 C7.8397421,4.38 4.40706833,7.79159021 4.40706833,12 C4.40706833,16.2084098 7.8397421,19.62 12.0741598,19.62 C14.6726224,19.62 16.9691723,18.335298 18.3558462,16.3701235 L19.858658,17.4161153 C18.1401641,19.8513179 15.2942212,21.443271 12.0741598,21.443271 C6.8265543,21.443271 2.57252951,17.2153746 2.57252951,12 C2.57252951,6.78462542 6.8265543,2.55672897 12.0741598,2.55672897 Z M12.0741598,5.1 C14.4267159,5.1 16.5059754,6.26293464 17.7616886,8.04193378 L16.2426923,9.09979095 C15.322465,7.79574349 13.7984827,6.94325153 12.0741598,6.94325153 C9.2641355,6.94325153 6.98616071,9.20723494 6.98616071,12 C6.98616071,14.7927651 9.2641355,17.0567485 12.0741598,17.0567485 C13.7989303,17.0567485 15.323256,16.2038139 16.2434087,14.8991936 L17.7623913,15.9570704 C16.5067512,17.7366314 14.4271548,18.9 12.0741598,18.9 C8.23984456,18.9 5.13151792,15.8107648 5.13151792,12 C5.13151792,8.18923523 8.23984456,5.1 12.0741598,5.1 Z M12.0741598,7.63674847 C13.5619319,7.63674847 14.8768554,8.37225579 15.6708922,9.49736996 L14.1517856,10.5550709 C13.6932233,9.90499658 12.9336299,9.48 12.0741598,9.48 C10.6738012,9.48 9.53858624,10.6082424 9.53858624,12 C9.53858624,13.3917576 10.6738012,14.52 12.0741598,14.52 C12.9336299,14.52 13.6932233,14.0950034 14.1517856,13.4449291 L15.6716057,14.5016187 C14.8776432,15.6273035 13.5623776,16.3632515 12.0741598,16.3632515 C9.64951026,16.3632515 7.68394344,14.4097573 7.68394344,12 C7.68394344,9.59024272 9.64951026,7.63674847 12.0741598,7.63674847 Z" id="SYMBOL" fill="url(#linearGradient-1)"></path>
                    <path d="M85.6841179,0.0975609756 C87.2410796,0.0975609756 88.7980412,0.349266876 90.3550029,0.852678676 C91.0667568,1.05920659 91.9103169,1.40341979 92.8856834,1.88531827 L93.2576242,2.07248419 L93.2576242,5.00582603 C92.6793242,4.5798622 92.0954636,4.20230335 91.5060424,3.87314948 C90.9166212,3.54399561 90.3327605,3.27292771 89.7544605,3.0599458 C88.419922,2.51781001 87.0631411,2.24674212 85.6841179,2.24674212 C83.9492178,2.24674212 82.0625139,2.62430097 80.9281561,3.37941867 C79.7715561,4.15389837 79.193256,5.073593 79.193256,6.13850258 C79.193256,7.68746196 80.5055523,8.8491815 83.1301448,9.62366119 C84.3534718,9.99153905 86.0233131,10.3448954 87.235519,10.6837303 C88.4477248,11.0225651 89.6766124,11.3662405 90.9221817,11.7147564 C93.5690165,12.8183899 94.8924339,14.4641593 94.8924339,16.6520644 C94.8924339,18.7818836 93.9471358,20.4954199 92.0565395,21.7926734 C90.3910631,22.920297 88.3549388,23.5267166 85.9481664,23.6119322 L85.9468552,23.6223816 L85.0891165,23.6223816 C80.8111499,23.6223816 78.8293555,22.7065915 73.7036749,20.2663459 L72.3404846,19.6145467 L71.9147454,19.413729 L71.7863217,19.3541854 C69.5957486,22.1238397 66.1960023,23.902439 62.3786958,23.902439 C58.6683327,23.902439 55.3524614,22.2221002 53.1580091,19.5846136 C52.8890134,19.7211519 52.6123408,19.8646627 52.3285775,20.0141657 L50.1922856,21.1491058 L49.836229,21.3340404 C49.2583379,21.6319149 48.7541577,21.8798369 48.2641042,22.1047521 C46.3267723,22.9939111 43.714692,23.4914544 41.9981757,23.6001521 L41.8072601,23.6106296 C41.7766963,23.6120492 41.7211149,23.613275 41.6403068,23.6143641 L40.1726541,23.620561 L40.1726708,23.6223816 L40.1266541,23.620561 L39.9365533,23.6223816 L39.9356541,23.616561 L39.9163721,23.6169312 C38.0791567,23.5407905 35.359319,22.6703823 33.2052029,21.2245037 C30.0366938,19.0977476 28.1446541,15.9265472 28.1446541,11.7551379 C28.1446541,7.53123199 29.7209519,4.4018409 32.5038461,2.40991081 C34.6806701,0.851791467 37.479016,0.0975609756 40.1726708,0.0975609756 C43.1326521,0.0975609756 45.706682,0.932285889 47.8535161,2.60006354 L47.992921,2.71001271 L46.580962,4.45542648 C44.8171677,3.04322768 42.6957351,2.33802009 40.1726708,2.33802009 C37.9201792,2.33802009 35.5786362,2.96912975 33.8190871,4.22857356 C31.6305984,5.79504221 30.3966879,8.24469893 30.3966879,11.7551379 C30.3966879,15.1390428 31.8870836,17.6370578 34.4647497,19.3672303 C36.3070821,20.6038344 38.6771123,21.346822 40.0745296,21.3807108 L40.0976541,21.380561 L41.6433367,21.3738674 C41.673112,21.3734409 41.6933855,21.3730192 41.7022282,21.3726085 C43.1557177,21.3050946 45.5534982,20.8814311 47.3207197,20.0703462 L47.5974155,19.9414785 C48.0172707,19.743157 48.4618001,19.5208631 48.9718077,19.255935 L49.3244466,19.0712084 L51.0497884,18.1531144 C51.3339975,18.0022541 51.6119892,17.8567511 51.8843747,17.7165166 C50.9470353,16.0206741 50.4147662,14.0721766 50.4147662,12 C50.4147662,5.42646444 55.7711999,0.0975609756 62.3786958,0.0975609756 C68.9861917,0.0975609756 74.3426254,5.42646444 74.3426254,12 C74.3426254,13.9660409 73.863485,15.8207478 73.0150372,17.4548521 L74.8931167,18.3485435 C79.5243874,20.5406516 81.2055391,21.3559798 84.9090551,21.3813109 L85.0891165,21.3819225 L85.4887693,21.3832126 C87.2259001,21.3649931 89.1548913,21.0617582 90.3399893,20.311481 C91.6967702,19.4595533 92.3751606,18.3462387 92.3751606,16.9715373 C92.3751606,15.3064059 91.0851067,14.0381954 88.5049988,13.1669058 C87.2594295,12.8377519 85.5840275,12.4989171 84.3829428,12.1504012 C83.1818581,11.8018853 81.9807734,11.4630505 80.7796887,11.1338966 C78.1773386,10.088349 76.8761635,8.48130365 76.8761635,6.31276051 C76.8761635,4.49273323 77.6991289,3.01154082 79.3450598,1.86918327 C81.0354753,0.688101741 83.1484947,0.0975609756 85.6841179,0.0975609756 Z M108.182631,0.509867687 C113.565679,0.509867687 115.766296,2.65402158 115.766296,6.27228127 C115.766296,8.57422069 114.815096,10.2800195 112.20697,11.1771318 L111.940608,11.2641396 L111.940608,11.4316516 C114.852193,11.9676901 116.748109,13.6093079 116.748109,16.9260459 C116.748109,20.6361022 114.211942,23.3487115 109.107744,23.4557319 L108.792033,23.4590148 L98.567628,23.4590148 L98.567628,0.509867687 L108.182631,0.509867687 Z M130.808937,0.509867687 L139.815817,23.4590148 L136.092778,23.4590148 L128.898258,4.38627083 L121.703738,23.4590148 L117.921044,23.4590148 L127.00115,0.509867687 L130.808937,0.509867687 Z M146.229894,0.509867687 L146.229894,20.577808 L159.364721,20.577808 L159.364721,23.4590148 L142.748152,23.4590148 L142.748152,0.509867687 L146.229894,0.509867687 Z M165.778798,0.509867687 L165.778798,20.577808 L178.913626,20.577808 L178.913626,23.4590148 L162.297057,23.4590148 L162.297057,0.509867687 L165.778798,0.509867687 Z M62.6269335,16.9010043 C60.0517681,16.9010043 57.9243773,17.4021816 55.2649107,18.5762169 C57.0369722,20.4745041 59.5684426,21.6619799 62.3786958,21.6619799 C65.268997,21.6619799 67.8644074,20.4058919 69.6434794,18.4124834 C67.0239603,17.3426462 65.0334839,16.9010043 62.6269335,16.9010043 Z M108.802954,13.2612236 L101.829055,13.2612236 L101.829055,20.6516269 L108.385765,20.6516269 C111.466629,20.6516269 113.644311,19.3883101 113.644311,16.8932594 C113.644311,14.3034599 111.951529,13.2612236 108.802954,13.2612236 Z M62.3786958,2.33802009 C57.0149639,2.33802009 52.6668,6.66383584 52.6668,12 C52.6668,13.7177951 53.117399,15.330888 53.9074216,16.7286747 C57.0445627,15.2888439 59.535425,14.6605452 62.6269335,14.6605452 C65.5222183,14.6605452 67.8563772,15.2166495 70.9585108,16.5293922 C71.6812988,15.1792324 72.0905916,13.6371683 72.0905916,12 C72.0905916,6.66383584 67.7424278,2.33802009 62.3786958,2.33802009 Z M108.062498,3.25706486 L101.829055,3.25706486 L101.829055,9.86953099 L107.859364,9.86953099 C110.500105,9.86953099 112.497588,9.05856816 112.497588,6.53210705 C112.497588,4.03683681 110.974084,3.25706486 108.062498,3.25706486 Z" id="TITLE" fill="#000000" fill-rule="nonzero"></path>
                </g>
                <text id="세-계-최-초-매-일-맞-춤-화-장" font-family="NotoSansCJKkr-Regular, Noto Sans CJK KR" font-size="12" font-weight="normal" letter-spacing="1" fill="#666666">
                    <tspan x="4.84" y="70">세 계 최 초 매 일 맞 춤 화 장 품</tspan>
                </text>
            </g>
        </g>
    </g>
</svg>