<svg xmlns="http://www.w3.org/2000/svg" width="20" height="20" viewBox="0 0 20 20">
    <g fill="none" fill-rule="evenodd">
        <g fill="#111" fill-rule="nonzero">
            <g>
                <path d="M2.284 1.589l.07.057L10 9.293l7.646-7.647.07-.057c.195-.135.464-.116.638.057.195.196.195.512 0 .708L10.707 10l7.647 7.646c.195.196.195.512 0 .708-.174.173-.443.192-.638.057l-.07-.057L10 10.707l-7.646 7.647-.07.057c-.195.135-.464.116-.638-.057-.195-.196-.195-.512 0-.708L9.293 10 1.646 2.354c-.195-.196-.195-.512 0-.708.174-.173.443-.192.638-.057z" transform="translate(-320 -18) translate(320 18)"/>
            </g>
        </g>
    </g>
</svg>
