<svg xmlns="http://www.w3.org/2000/svg" width="89" height="96" viewBox="0 0 89 96">
    <g fill="none" fill-rule="evenodd">
        <g fill="#EAEAED">
            <g>
                <path d="M48.77 0c16.568 0 31.196 8.23 39.94 20.787l-6.154 4.219c-7.4-10.596-19.773-17.54-33.787-17.54C26.114 7.467 7.748 25.615 7.748 48s18.366 40.533 41.021 40.533c13.696 0 25.824-6.632 33.275-16.823l6.157 4.22C79.405 88.082 65.02 96 48.769 96 21.995 96 .29 74.51.29 48S21.995 0 48.77 0zm0 10.388c13.007 0 24.49 6.447 31.356 16.283l-5.311 3.641c-5.567-7.998-14.917-13.245-25.513-13.245-17.065 0-30.9 13.61-30.9 30.4s13.835 30.4 30.9 30.4c9.957 0 18.815-4.634 24.466-11.83l5.846 4.007C72.698 79.476 61.46 85.612 48.77 85.612c-21.022 0-38.065-16.84-38.065-37.612 0-20.773 17.043-37.612 38.065-37.612zm.532 9.551c9.604 0 18.078 4.761 23.117 12.015l-6.505 4.46c-3.659-5.248-9.735-8.68-16.612-8.68-11.18 0-20.244 9.073-20.244 20.266 0 11.193 9.063 20.267 20.244 20.267 6.562 0 12.394-3.126 16.094-7.97l5.974 4.094c-5.12 6.454-13.102 10.603-22.068 10.603-15.453 0-27.98-12.324-27.98-27.527 0-15.203 12.527-27.528 27.98-27.528zm0 10.574c5.926 0 11.163 2.954 14.322 7.473l-6.19 4.241c-1.773-2.933-4.99-4.894-8.665-4.894-5.59 0-10.122 4.537-10.122 10.134 0 5.596 4.532 10.133 10.122 10.133 3.043 0 5.773-1.344 7.628-3.472l6.704 4.596c-3.196 4.115-8.189 6.763-13.8 6.763-9.646 0-17.467-7.83-17.467-17.487 0-9.658 7.82-17.487 17.468-17.487z" transform="translate(-131 -56) translate(131 56)"/>
            </g>
        </g>
    </g>
</svg>
