<svg xmlns="http://www.w3.org/2000/svg" width="23" height="26" viewBox="0 0 23 26">
    <defs>
        <linearGradient id="8ukl30qo6a" x1="27.559%" x2="73.258%" y1="20.133%" y2="79.518%">
            <stop offset="0%" stop-color="#5310CD"/>
            <stop offset="100%" stop-color="#FFA435"/>
        </linearGradient>
    </defs>
    <g fill="none" fill-rule="evenodd">
        <g fill="url(#8ukl30qo6a)" transform="translate(-20 -15)">
            <g>
                <g>
                    <path d="M12.642 0c4.285 0 8.072 2.192 10.359 5.545l-1.574 1.133c-1.94-2.844-5.15-4.703-8.785-4.703C6.721 1.975 1.921 6.911 1.921 13s4.8 11.025 10.721 11.025c3.634 0 6.845-1.859 8.784-4.702L23 20.456C20.713 23.808 16.927 26 12.642 26 5.66 26 0 20.18 0 13S5.66 0 12.642 0zm0 2.77c3.372 0 6.352 1.725 8.152 4.363l-1.575 1.132c-1.452-2.129-3.856-3.52-6.577-3.52-4.433 0-8.028 3.696-8.028 8.255 0 4.56 3.595 8.255 8.028 8.255 2.72 0 5.125-1.391 6.577-3.52l1.575 1.132c-1.8 2.638-4.78 4.363-8.152 4.363-5.494 0-9.948-4.58-9.948-10.23S7.148 2.77 12.642 2.77zm0 2.755c2.464 0 4.641 1.26 5.956 3.188l-1.591 1.145c-.964-1.413-2.56-2.336-4.365-2.336C9.7 7.522 7.315 9.975 7.315 13s2.385 5.478 5.327 5.478c1.806 0 3.401-.923 4.365-2.336l1.59 1.145c-1.314 1.928-3.491 3.188-5.955 3.188-4.014 0-7.269-3.347-7.269-7.475s3.255-7.475 7.27-7.475zm0 2.748c1.558 0 2.935.797 3.766 2.016l-1.59 1.145c-.48-.704-1.276-1.164-2.176-1.164-1.466 0-2.655 1.222-2.655 2.73s1.19 2.73 2.655 2.73c.9 0 1.695-.46 2.175-1.164l1.592 1.144c-.831 1.22-2.208 2.017-3.767 2.017-2.538 0-4.596-2.116-4.596-4.727 0-2.61 2.058-4.727 4.596-4.727z" transform="translate(20 15)"/>
                </g>
            </g>
        </g>
    </g>
</svg>
