<svg xmlns="http://www.w3.org/2000/svg" width="208" height="22" viewBox="0 0 208 22">
    <g fill="none" fill-rule="evenodd">
        <g fill="#111" fill-rule="nonzero">
            <g>
                <g>
                    <path d="M146.067 21c2.72 0 4.946-.995 6.238-2.349v-8.51h-6.595v2.127h4.259v5.306c-.797.746-2.198 1.188-3.654 1.188-4.314 0-6.705-3.205-6.705-8.317 0-5.057 2.638-8.207 6.677-8.207 2.06 0 3.352.857 4.369 1.934l1.374-1.658C150.876 1.271 149.035 0 146.232 0 140.902 0 137 3.979 137 10.528 137 17.104 140.764 21 146.067 21zm10.936-.36l1.95-6.189h7.365l1.923 6.19h2.693L164.092.387h-2.83L154.42 20.64h2.583zm8.683-8.233h-6.1l.99-3.01c.713-2.229 1.373-4.351 2.005-6.661h.11c.66 2.283 1.291 4.432 2.033 6.662l.962 3.009zm10.386 8.234V9.422c0-1.74-.192-4.2-.302-5.968h.11l1.593 4.614 3.82 10.528h1.703l3.82-10.528 1.593-4.614h.11c-.137 1.768-.33 4.228-.33 5.968v11.219h2.39V.387h-3.077l-3.846 10.831-1.374 4.228h-.138c-.494-1.41-.961-2.818-1.428-4.228L176.84.387h-3.077V20.64h2.308zm31.928 0v-2.183h-9.37V11.08h7.639V8.897h-7.639V2.542h9.068V.387h-11.623V20.64H208z" transform="translate(-76 -80) translate(76 80)"/>
                    <g>
                        <g>
                            <path d="M50.033.086c1.352 0 2.704.222 4.056.665.618.182 1.35.485 2.198.91l.323.164v2.583c-.503-.375-1.01-.708-1.522-.997-.511-.29-1.018-.529-1.52-.717-1.16-.477-2.338-.716-3.535-.716-1.507 0-3.145.333-4.13.998-1.005.682-1.507 1.492-1.507 2.43 0 1.363 1.14 2.386 3.419 3.068 1.062.324 2.512.635 3.565.934 1.053.298 2.12.6 3.201.908 2.299.971 3.448 2.42 3.448 4.347 0 1.876-.82 3.385-2.462 4.527-1.447.993-3.215 1.527-5.305 1.602l-.001.01h-.745c-3.715 0-5.436-.807-9.887-2.956l-1.184-.574-.37-.177-.111-.052c-1.903 2.439-4.855 4.005-8.17 4.005-3.222 0-6.101-1.48-8.007-3.802-.233.12-.474.246-.72.378l-1.855 1-.31.162c-.501.262-.94.48-1.365.679-1.682.783-3.95 1.22-5.441 1.316l-.166.01-.145.003-1.274.006v.001l-.033-.001-.172.001v-.005h-.04c-1.596-.074-3.944-.84-5.806-2.106C1.71 16.817.066 14.024.066 10.35c0-3.72 1.369-6.475 3.785-8.229C5.741.75 8.171.086 10.511.086c2.57 0 4.805.735 6.67 2.204l.12.096-1.225 1.537C14.544 2.68 12.702 2.06 10.51 2.06c-1.956 0-3.99.556-5.518 1.665-1.9 1.379-2.972 3.536-2.972 6.627 0 2.98 1.295 5.18 3.533 6.703 1.6 1.089 3.658 1.743 4.872 1.773h.026l1.336-.006.051-.001c1.262-.06 3.344-.433 4.88-1.147l.24-.113c.364-.175.75-.37 1.193-.604l.306-.163 1.498-.808c.247-.133.489-.261.725-.384-.814-1.494-1.276-3.21-1.276-5.034 0-5.789 4.651-10.481 10.39-10.481 5.737 0 10.389 4.692 10.389 10.48 0 1.732-.416 3.365-1.153 4.804l1.63.787c4.023 1.93 5.483 2.648 8.699 2.67l.156.001.357.001c1.506-.017 3.176-.284 4.203-.943 1.178-.75 1.767-1.73 1.767-2.941 0-1.467-1.12-2.583-3.36-3.35-1.082-.29-2.537-.589-3.58-.896-1.043-.307-2.086-.605-3.13-.895-2.26-.92-3.39-2.336-3.39-4.245 0-1.603.716-2.907 2.145-3.913C45.996.606 47.83.086 50.033.086zM69.57.449c4.675 0 6.586 1.888 6.586 5.074 0 2.023-.822 3.522-3.075 4.314l-.247.082v.147c2.528.472 4.175 1.918 4.175 4.838 0 3.262-2.195 5.648-6.612 5.75l-.297.003h-8.88V.45h8.35zm19.649 0l7.821 20.208h-3.233L87.56 3.862l-6.248 16.795h-3.285L85.912.45h3.307zm13.391 0V18.12h11.407v2.537h-14.43V.45h3.023zm16.977 0V18.12h11.406v2.537h-14.43V.45h3.024zM30.01 14.882c-2.236 0-4.083.442-6.392 1.475 1.539 1.673 3.737 2.718 6.176 2.718 2.51 0 4.764-1.106 6.31-2.862-2.275-.942-4.004-1.33-6.094-1.33zm40.099-3.205h-6.056v6.508h5.694c2.675 0 4.566-1.112 4.566-3.31 0-2.28-1.47-3.198-4.204-3.198zM29.794 2.06c-4.657 0-8.433 3.809-8.433 8.508 0 1.512.39 2.932 1.076 4.163 2.725-1.267 4.888-1.82 7.573-1.82 2.514 0 4.54.49 7.234 1.645.629-1.189.984-2.547.984-3.988 0-4.7-3.776-8.508-8.434-8.508zm39.672.81h-5.413V8.69h5.237c2.293 0 4.027-.714 4.027-2.939 0-2.197-1.323-2.884-3.851-2.884z" transform="translate(-76 -80) translate(76 80)"/>
                        </g>
                    </g>
                </g>
            </g>
        </g>
    </g>
</svg>
