<svg xmlns="http://www.w3.org/2000/svg" width="20" height="22" viewBox="0 0 20 22">
    <g fill="none" fill-rule="evenodd" opacity=".3">
        <g fill="#DDE0E7">
            <g>
                <g>
                    <g>
                        <path d="M10.993 0c3.725 0 7.018 1.854 9.006 4.691l-1.368.958c-1.687-2.405-4.479-3.978-7.638-3.978C5.844 1.671 1.67 5.848 1.67 11c0 5.152 4.174 9.329 9.323 9.329 3.16 0 5.951-1.573 7.638-3.978l1.368.958C18.011 20.146 14.72 22 10.993 22 4.922 22 0 17.075 0 11S4.922 0 10.993 0zm0 2.344c2.932 0 5.523 1.46 7.088 3.692l-1.369.958c-1.262-1.801-3.353-2.979-5.72-2.979-3.854 0-6.98 3.127-6.98 6.985 0 3.858 3.126 6.985 6.98 6.985 2.367 0 4.458-1.178 5.72-2.98l1.368.96c-1.565 2.232-4.156 3.691-7.087 3.691-4.778 0-8.65-3.875-8.65-8.656 0-4.78 3.872-8.656 8.65-8.656zm0 2.331c2.142 0 4.035 1.066 5.178 2.697l-1.383.97c-.838-1.196-2.225-1.977-3.795-1.977C8.435 6.365 6.36 8.44 6.36 11c0 2.56 2.074 4.635 4.632 4.635 1.57 0 2.957-.781 3.795-1.976l1.383.97c-1.143 1.63-3.036 2.696-5.178 2.696-3.491 0-6.321-2.832-6.321-6.325 0-3.493 2.83-6.325 6.32-6.325zm0 2.325c1.354 0 2.551.674 3.274 1.706l-1.383.969c-.417-.596-1.109-.985-1.891-.985-1.275 0-2.309 1.034-2.309 2.31s1.034 2.31 2.309 2.31c.782 0 1.474-.39 1.891-.985l1.383.97c-.723 1.03-1.92 1.705-3.274 1.705-2.208 0-3.997-1.791-3.997-4s1.79-4 3.997-4z" transform="translate(-203 -1288) translate(20 1267) translate(173 12) translate(10 9)"/>
                    </g>
                </g>
            </g>
        </g>
    </g>
</svg>
