<?xml version="1.0" encoding="UTF-8"?>
<svg width="74px" height="60px" viewBox="0 0 74 60" version="1.1" xmlns="http://www.w3.org/2000/svg" xmlns:xlink="http://www.w3.org/1999/xlink">
    <title>icon_error2</title>
    <g id="Design" stroke="none" stroke-width="1" fill="none" fill-rule="evenodd">
        <g id="PG-&gt;-결제-오류-및-실패" transform="translate(-923.000000, -524.000000)">
            <g id="CONTENTS" transform="translate(701.000000, 426.000000)">
                <g id="icon_error2" transform="translate(209.000000, 95.000000)">
                    <g id="icon_error">
                        <path d="M29.0518743,78.7767063 L17.0910662,20.9033835 C16.6484189,18.7615991 18.0258416,16.6665032 20.1676261,16.2238558 C20.7272795,16.108191 21.3053371,16.1150284 21.8620981,16.2438985 L78.4580973,29.3438312 C80.5888125,29.8370149 81.916294,31.9641052 81.4231103,34.0948204 C81.256416,34.8149942 80.8914716,35.4741331 80.3695769,35.9976436 L35.7343858,80.7710337 C34.1903018,82.3198985 31.6829715,82.3237741 30.1341067,80.7796901 C29.5850783,80.2323563 29.2087802,79.5359079 29.0518743,78.7767063 Z" id="Path" stroke="#333333" stroke-width="1.98" transform="translate(50.620411, 50.415375) rotate(-315.000000) translate(-50.620411, -50.415375) "></path>
                        <g id="Group" transform="translate(47.520000, 22.200375)" fill="#333333" fill-rule="nonzero">
                            <path d="M2.7225,10.89 C1.82039204,10.89 1.089,11.4603658 1.089,12.163862 L1.089,31.396138 C1.089,32.0996342 1.82039204,32.67 2.7225,32.67 C3.62460796,32.67 4.356,32.0996342 4.356,31.396138 L4.356,12.163862 C4.356,11.4603658 3.62460796,10.89 2.7225,10.89 Z" id="Shape" stroke="#333333" stroke-width="0.5"></path>
                            <circle id="Oval" cx="2.7225" cy="2.7225" r="2.7225"></circle>
                        </g>
                    </g>
                </g>
            </g>
        </g>
    </g>
</svg>