<svg xmlns="http://www.w3.org/2000/svg" width="31" height="25" viewBox="0 0 31 25">
    <g fill="none" fill-rule="evenodd">
        <path d="M0 0H31V25H0z"/>
        <path fill="#000" d="M9.288 5.712L11.288 5.712 11.288 19.288 9.288 19.288z" transform="rotate(-90 10.288 12.5)"/>
        <path fill="#000" fill-rule="nonzero" d="M18.923 1.5c5.842 0 10.577 4.925 10.577 11s-4.735 11-10.577 11c-4.841 0-8.923-3.383-10.179-8h2.018c1.187 3.495 4.393 6 8.161 6 4.78 0 8.654-4.03 8.654-9s-3.875-9-8.654-9c-3.768 0-6.973 2.504-8.161 6l-2.017-.001C10 4.882 14.082 1.5 18.923 1.5z"/>
        <path stroke="#000" stroke-width="1.7" d="M0.5 10.5L4.5 14.5 8.5 10.5" transform="matrix(0 -1 -1 0 17 17)"/>
    </g>
</svg>
