<?xml version="1.0" encoding="UTF-8"?>
<svg width="24px" height="25px" viewBox="0 0 24 25" version="1.1" xmlns="http://www.w3.org/2000/svg" xmlns:xlink="http://www.w3.org/1999/xlink">
    <title>Btn / btn_my</title>
    <g id="Symbol" stroke="none" stroke-width="1" fill="none" fill-rule="evenodd">
        <g id="Header-logout" transform="translate(-1392.000000, -79.000000)">
            <g id="Header">
                <g id="title영역" transform="translate(0.000000, 39.000000)">
                    <g id="Btn-/-btn_my" transform="translate(1388.000000, 40.000000)">
                        <g id="btn_my">
                            <rect id="Rectangle" x="0" y="0" width="31" height="25"></rect>
                            <path d="M15.49675,1 C13.9662077,1 12.5736341,1.4970178 11.6011988,2.52968639 C10.6952102,3.49179245 10.1735375,4.89944682 10.1735375,6.71487603 C10.1735375,8.30208977 10.3513646,9.77971575 11.0373531,10.9731464 C11.7737919,12.2543465 12.8849083,13.2087029 14.209599,13.5917504 L14.2136733,15.8508566 C12.9606297,15.9958784 11.5396768,16.3274528 9.52612976,16.8407235 C7.90274225,17.2545391 6.7053222,18.0902208 5.96295261,19.3840982 C5.27999047,20.5744343 4.97396204,22.1173384 5.00091553,24 L26.0760075,24 C26.102961,22.1173384 25.7969326,20.5744343 25.1139705,19.3840982 C24.3716009,18.0902208 23.1741808,17.2545391 21.5507933,16.8407235 C19.5945655,16.3420639 18.1972314,16.0149087 16.9699654,15.8635113 L16.9757709,13.5116062 C18.1797034,13.0847596 19.2588385,12.1802417 19.9494886,10.9830411 C20.6389648,9.78787539 20.8199625,8.30649664 20.8199625,6.71487603 C20.8199625,4.89944682 20.2982898,3.49179245 19.3923012,2.52968639 C18.4198658,1.4970178 17.0272922,1 15.49675,1 Z" id="Combined-Shape-Copy-4" stroke="#000000" stroke-width="2"></path>
                        </g>
                    </g>
                </g>
            </g>
        </g>
    </g>
</svg>