<svg xmlns="http://www.w3.org/2000/svg" width="48" height="48" viewBox="0 0 48 48">
    <g fill="none" fill-rule="evenodd">
        <g>
            <path fill="#FFF" d="M0 0H1920V4026H0z" transform="translate(-878 -841)"/>
            <g>
                <path fill="#F4F4F4" d="M0 0L580 0 580 639 0 639z" transform="translate(-878 -841) translate(370 270)"/>
                <path d="M0 0L580 0 580 639 0 639z" transform="translate(-878 -841) translate(370 270)"/>
                <g>
                    <g transform="translate(-878 -841) translate(370 270) translate(392 571) translate(116)">
                        <circle cx="24" cy="24" r="24" fill="#FFF" fill-opacity=".8"/>
                        <path fill="#111" d="M34 16.01c-.87.613-1.834 1.083-2.855 1.39-1.121-1.29-2.928-1.741-4.525-1.132-1.597.61-2.643 2.15-2.62 3.86v.909c-3.245.084-6.316-1.462-8.182-4.119 0 0-3.636 8.182 4.546 11.819-1.873 1.27-4.103 1.908-6.364 1.818 8.182 4.545 18.182 0 18.182-10.455-.001-.253-.025-.506-.073-.754.928-.915 1.583-2.07 1.891-3.337z"/>
                    </g>
                </g>
            </g>
        </g>
    </g>
</svg>
