<?xml version="1.0" encoding="UTF-8"?>
<svg width="20px" height="22px" viewBox="0 0 20 22" version="1.1" xmlns="http://www.w3.org/2000/svg" xmlns:xlink="http://www.w3.org/1999/xlink">
    <title>Group 2</title>
    <g id="Design" stroke="none" stroke-width="1" fill="none" fill-rule="evenodd" stroke-linecap="round" stroke-linejoin="round">
        <g id="정보입력" transform="translate(-787.000000, -281.000000)" stroke="#e5e5e5" stroke-width="2">
            <g id="CONTENTS" transform="translate(0.000000, 254.000000)">
                <g id="step" transform="translate(748.000000, 0.000000)">
                    <g id="1-" transform="translate(0.000000, 16.000000)">
                        <g id="Group-5" transform="translate(27.000000, 0.000000)">
                            <g id="icon-3" transform="translate(13.000000, 12.000000)">
                                <g id="icon-2">
                                    <g id="icon">
                                        <g id="Group-2" transform="translate(0.000000, 0.000000)">
                                            <path d="M13.23,4.40712516 C13.23,6.84132729 11.25579,8.81425033 8.82,8.81425033 C6.38421,8.81425033 4.41,6.84132729 4.41,4.40712516 C4.41,1.97292303 6.38421,-5.40900658e-13 8.82,-5.40900658e-13 C11.25579,-5.40900658e-13 13.23,1.97292303 13.23,4.40712516 Z" id="Stroke-103"></path>
                                            <path d="M17.64,19.5665841 L-7.10542736e-15,19.5665841 C-7.10542736e-15,15.5105599 3.28986,12.2213755 7.35,12.2213755 L10.29,12.2213755 C14.35014,12.2213755 17.64,15.5105599 17.64,19.5665841 Z" id="Stroke-104"></path>
                                        </g>
                                    </g>
                                </g>
                            </g>
                        </g>
                    </g>
                </g>
            </g>
        </g>
    </g>
</svg>