<?xml version="1.0" encoding="UTF-8"?>
<svg width="20px" height="23px" viewBox="0 0 20 23" version="1.1" xmlns="http://www.w3.org/2000/svg" xmlns:xlink="http://www.w3.org/1999/xlink">
    <title>icon 4</title>
    <g id="Design" stroke="none" stroke-width="1" fill="none" fill-rule="evenodd" stroke-linecap="round" stroke-linejoin="round">
        <g id="정보입력" transform="translate(-1114.000000, -281.000000)" stroke="#ffffff" stroke-width="2">
            <g id="CONTENTS" transform="translate(0.000000, 254.000000)">
                <g id="step" transform="translate(748.000000, 0.000000)">
                    <g id="3" transform="translate(327.000000, 0.000000)">
                        <g id="Group-5" transform="translate(27.000000, 16.000000)">
                            <g id="icon-4" transform="translate(13.000000, 12.000000)">
                                <g id="icon">
                                    <line x1="4.5" y1="10.4931551" x2="13.5" y2="10.4931551" id="Stroke-203"></line>
                                    <line x1="4.5" y1="14.9902216" x2="13.5" y2="14.9902216" id="Stroke-204"></line>
                                    <path d="M16.5,20.9863103 L1.5,20.9863103 C0.672,20.9863103 0,20.3162474 0,19.4872881 L0,1.49902216 C0,0.670062907 0.672,8.65973959e-14 1.5,8.65973959e-14 L16.5,8.65973959e-14 C17.328,8.65973959e-14 18,0.670062907 18,1.49902216 L18,19.4872881 C18,20.3162474 17.328,20.9863103 16.5,20.9863103 Z" id="Stroke-205"></path>
                                    <line x1="4.5" y1="5.99608866" x2="10.5" y2="5.99608866" id="Stroke-206"></line>
                                    <line x1="4.5" y1="10.4931551" x2="13.5" y2="10.4931551" id="Stroke-203"></line>
                                    <line x1="4.5" y1="14.9902216" x2="13.5" y2="14.9902216" id="Stroke-204"></line>
                                    <path d="M16.5,20.9863103 L1.5,20.9863103 C0.672,20.9863103 0,20.3162474 0,19.4872881 L0,1.49902216 C0,0.670062907 0.672,8.65973959e-14 1.5,8.65973959e-14 L16.5,8.65973959e-14 C17.328,8.65973959e-14 18,0.670062907 18,1.49902216 L18,19.4872881 C18,20.3162474 17.328,20.9863103 16.5,20.9863103 Z" id="Stroke-205"></path>
                                    <line x1="4.5" y1="5.99608866" x2="10.5" y2="5.99608866" id="Stroke-206"></line>
                                    <g id="Group-6" transform="translate(0.000000, 0.000000)">
                                        <line x1="4.5" y1="10.4931551" x2="13.5" y2="10.4931551" id="Stroke-203"></line>
                                        <line x1="4.5" y1="14.9902216" x2="13.5" y2="14.9902216" id="Stroke-204"></line>
                                        <path d="M16.5,20.9863103 L1.5,20.9863103 C0.672,20.9863103 0,20.3162474 0,19.4872881 L0,1.49902216 C0,0.670062907 0.672,-8.2067686e-13 1.5,-8.2067686e-13 L16.5,-8.2067686e-13 C17.328,-8.2067686e-13 18,0.670062907 18,1.49902216 L18,19.4872881 C18,20.3162474 17.328,20.9863103 16.5,20.9863103 Z" id="Stroke-205"></path>
                                        <line x1="4.5" y1="5.99608866" x2="10.5" y2="5.99608866" id="Stroke-206"></line>
                                    </g>
                                </g>
                            </g>
                        </g>
                    </g>
                </g>
            </g>
        </g>
    </g>
</svg>