<?xml version="1.0" encoding="UTF-8"?>
<svg width="22px" height="22px" viewBox="0 0 22 22" version="1.1" xmlns="http://www.w3.org/2000/svg" xmlns:xlink="http://www.w3.org/1999/xlink">
    <title>Path</title>
    <g id="Design" stroke="none" stroke-width="1" fill="none" fill-rule="evenodd">
        <g id="정보입력" transform="translate(-950.000000, -281.000000)" fill="#ffffff">
            <g id="CONTENTS" transform="translate(0.000000, 254.000000)">
                <g id="step" transform="translate(748.000000, 0.000000)">
                    <g id="2" transform="translate(164.000000, 16.000000)">
                        <g id="Group-5" transform="translate(27.000000, 0.000000)">
                            <path d="M25.7640751,11.8714664 C26.9260303,10.7095112 28.8113548,10.7095112 29.97331,11.8714664 L32.1285336,14.0256977 C33.2904888,15.1886452 33.2904888,17.0739697 32.1285336,18.2359249 L18.2366691,32.1277894 C17.6780177,32.6864408 16.9209111,33 16.1310594,33 L11.992276,33 C11.4445397,33 11,32.5554603 11,32.007724 L11,27.8679484 C11,27.0790889 11.3135592,26.3219823 11.8722106,25.7633309 L25.7640751,11.8714664 Z M28.5966637,13.3048198 C28.1891952,12.8983934 27.530576,12.8983934 27.1231074,13.3048198 L25.1649659,15.2629614 L28.9020045,19 L30.8601461,17.0418584 C31.2665725,16.6343899 31.2665725,15.9757707 30.8601461,15.5683022 L28.5966637,13.3048198 Z M23.7230353,17 L13.4461945,27.2768408 C13.2657475,27.4572878 13.1649659,27.7010832 13.1649659,27.9554367 L13.1649659,31 L16.2085693,31 C16.4638827,31 16.7076781,30.8992184 16.8881251,30.7187714 L27.1649659,20.4419306 L23.7230353,17 Z" id="icon"></path>
                        </g>
                    </g>
                </g>
            </g>
        </g>
    </g>
</svg>