<?xml version="1.0" encoding="UTF-8"?>
<svg width="654px" height="718px" viewBox="0 0 654 718" version="1.1" xmlns="http://www.w3.org/2000/svg" xmlns:xlink="http://www.w3.org/1999/xlink">
    <title>BI_COSBALL</title>
    <defs>
        <linearGradient x1="26.2234298%" y1="20.1334635%" x2="74.6429887%" y2="79.5178385%" id="linearGradient-1">
            <stop stop-color="#5310CD" offset="0%"></stop>
            <stop stop-color="#FFA435" offset="100%"></stop>
        </linearGradient>
    </defs>
    <g id="03_App-Logo" stroke="none" stroke-width="1" fill="none" fill-rule="evenodd">
        <g id="[Ios]App-Logo" transform="translate(-185.000000, -153.000000)" fill="url(#linearGradient-1)">
            <g id="BI_COSBALL" transform="translate(185.000000, 153.000000)">
                <path d="M359.029737,0 C480.708301,0 588.249234,60.4694099 653.183624,152.968002 L608.489732,184.221378 C553.421386,105.777251 462.22032,54.4957478 359.029737,54.4957478 C190.870613,54.4957478 54.5507097,190.678304 54.5507097,358.668 C54.5507097,526.657696 190.870613,662.840252 359.029737,662.840252 C462.22032,662.840252 553.421386,611.558749 608.489732,533.114622 L653.183624,564.367998 C588.249234,656.86659 480.708301,717.336 359.029737,717.336 C160.743088,717.336 0,556.754867 0,358.668 C0,160.581133 160.743088,0 359.029737,0 Z M359.029737,76.4180722 C454.783028,76.4180722 539.410943,124.003479 590.510421,196.793805 L545.816974,228.047816 C504.583586,169.311597 436.295325,130.91382 359.029737,130.91382 C233.117715,130.91382 131.045854,232.88284 131.045854,358.668 C131.045854,484.45316 233.117715,586.42218 359.029737,586.42218 C436.295762,586.42218 504.58436,548.023968 545.817675,489.287185 L590.511122,520.541196 C539.411717,593.332086 454.783466,640.917928 359.029737,640.917928 C202.99019,640.917928 76.4951441,514.550331 76.4951441,358.668 C76.4951441,202.785669 202.99019,76.4180722 359.029737,76.4180722 Z M359.029737,152.4339 C428.994731,152.4339 490.830629,187.203632 528.167933,240.39009 L482.984396,271.986156 C455.621269,233.008069 410.304233,207.526845 359.029737,207.526845 C275.472595,207.526845 207.736147,275.195045 207.736147,358.668 C207.736147,442.140955 275.472595,509.809155 359.029737,509.809155 C410.304671,509.809155 455.622042,484.327496 482.985097,445.348846 L528.167933,476.94591 C490.830629,530.132368 428.994731,564.9021 359.029737,564.9021 C245.014914,564.9021 152.587638,472.567948 152.587638,358.668 C152.587638,244.768052 245.014914,152.4339 359.029737,152.4339 Z M359.029737,228.254775 C403.272531,228.254775 442.374834,250.241658 465.985266,283.874473 L420.801284,315.469905 C407.164982,296.045819 384.581755,283.34772 359.029737,283.34772 C317.38954,283.34772 283.633492,317.069758 283.633492,358.668 C283.633492,400.266242 317.38954,433.98828 359.029737,433.98828 C384.582193,433.98828 407.165756,421.289746 420.801985,401.865097 L465.985266,433.461527 C442.374834,467.094342 403.272531,489.081225 359.029737,489.081225 C286.93186,489.081225 228.484983,430.693235 228.484983,358.668 C228.484983,286.642765 286.93186,228.254775 359.029737,228.254775 Z" id="SYMBOL"></path>
            </g>
        </g>
    </g>
</svg>