<svg xmlns="http://www.w3.org/2000/svg" width="194" height="26" viewBox="0 0 194 26">
    <defs>
        <linearGradient id="prefix__a" x1="25.598%" x2="75.291%" y1="20.133%" y2="79.518%">
            <stop offset="0%" stop-color="#5310CD"/>
            <stop offset="100%" stop-color="#FFA435"/>
        </linearGradient>
    </defs>
    <g fill="none" fill-rule="evenodd">
        <path fill="url(#prefix__a)" d="M13.092 0c4.437 0 8.359 2.177 10.727 5.506l-1.63 1.125c-2.008-2.823-5.334-4.67-9.097-4.67-6.132 0-11.103 4.903-11.103 10.95 0 6.046 4.971 10.948 11.103 10.948 3.763 0 7.089-1.846 9.097-4.67l1.63 1.125c-2.368 3.33-6.29 5.507-10.727 5.507C5.862 25.82 0 20.04 0 12.91S5.862 0 13.092 0zm0 2.75c3.492 0 6.578 1.714 8.441 4.334l-1.63 1.125C18.4 6.095 15.91 4.712 13.093 4.712c-4.591 0-8.313 3.67-8.313 8.198 0 4.528 3.722 8.198 8.313 8.198 2.818 0 5.308-1.382 6.812-3.497l1.63 1.126c-1.864 2.62-4.95 4.333-8.442 4.333-5.69 0-10.303-4.549-10.303-10.16 0-5.61 4.613-10.16 10.303-10.16zm0 2.737c2.551 0 4.806 1.252 6.168 3.166L17.612 9.79c-.998-1.403-2.65-2.32-4.52-2.32-3.047 0-5.517 2.436-5.517 5.44 0 3.005 2.47 5.44 5.517 5.44 1.87 0 3.522-.917 4.52-2.32l1.647 1.138c-1.361 1.914-3.616 3.166-6.167 3.166-4.158 0-7.528-3.324-7.528-7.424 0-4.1 3.37-7.423 7.528-7.423zm0 2.73c1.613 0 3.04.79 3.9 2.001l-1.647 1.138c-.497-.7-1.321-1.157-2.253-1.157-1.518 0-2.75 1.214-2.75 2.711 0 1.498 1.232 2.712 2.75 2.712.932 0 1.756-.458 2.253-1.157l1.647 1.138c-.86 1.21-2.287 2.002-3.9 2.002-2.629 0-4.76-2.102-4.76-4.695 0-2.592 2.131-4.694 4.76-4.694z"/>
        <path fill="#000" fill-rule="nonzero" d="M92.908.105c1.688 0 3.376.27 5.064.812.782.225 1.71.602 2.784 1.13l.364.183v3.156c-.628-.459-1.26-.865-1.9-1.219-.639-.354-1.272-.646-1.899-.875-1.447-.583-2.918-.875-4.413-.875-1.882 0-3.927.406-5.157 1.219-1.254.833-1.882 1.822-1.882 2.968 0 1.667 1.423 2.916 4.27 3.75 1.326.396 3.136.776 4.45 1.14l3.998 1.11c2.87 1.187 4.305 2.957 4.305 5.311 0 2.292-1.025 4.135-3.075 5.53-1.806 1.214-4.013 1.866-6.623 1.958l-.002.011h-.93c-4.638 0-6.787-.985-12.345-3.61l-1.478-.701-.462-.217-.14-.063c-2.374 2.98-6.06 4.893-10.2 4.893-4.023 0-7.619-1.808-9.998-4.646-.292.148-.592.302-.899.462l-2.316 1.222-.386.198c-.627.321-1.174.588-1.705.83-2.1.956-4.933 1.492-6.794 1.609l-.207.01c-.033.002-.094.004-.181.005l-1.592.007v.001l-.053-.001-.203.001v-.005c-2.001-.078-4.958-1.016-7.298-2.574-3.436-2.288-5.488-5.7-5.488-10.188 0-4.544 1.71-7.911 4.727-10.054C37.604.916 40.639.105 43.559.105c3.21 0 6 .898 8.329 2.692l.15.119-1.53 1.877c-1.913-1.519-4.213-2.278-6.949-2.278-2.442 0-4.981.68-6.889 2.034-2.373 1.686-3.71 4.321-3.71 8.098 0 3.64 1.615 6.328 4.41 8.19 1.998 1.33 4.568 2.13 6.083 2.166h.053l1.648-.008.064-.001c1.576-.073 4.176-.528 6.092-1.401l.3-.139c.455-.213.937-.452 1.49-.737l.383-.199 1.87-.988c.308-.162.61-.318.905-.47-1.016-1.824-1.593-3.92-1.593-6.15 0-7.072 5.808-12.805 12.972-12.805 7.165 0 12.973 5.733 12.973 12.805 0 2.116-.52 4.11-1.44 5.869l2.037.962c5.022 2.358 6.844 3.235 10.86 3.262l.195.001h.48c1.872-.024 3.94-.351 5.214-1.152 1.471-.916 2.207-2.114 2.207-3.593 0-1.791-1.4-3.156-4.197-4.093-1.35-.354-3.167-.719-4.47-1.094-1.302-.375-2.604-.74-3.906-1.093-2.822-1.125-4.233-2.854-4.233-5.187 0-1.958.892-3.552 2.677-4.781C87.867.741 90.158.105 92.908.105zm24.395.444c5.837 0 8.223 2.306 8.223 6.2 0 2.48-1.036 4.318-3.877 5.282l-.271.088v.18c3.157.577 5.212 2.343 5.212 5.911 0 3.996-2.756 6.917-8.303 7.026l-.323.003h-11.087V.549h10.426zm24.534 0l9.766 24.69h-4.037l-7.801-20.52-7.801 20.52h-4.102l9.846-24.69h4.129zm16.72 0v21.59H172.8v3.1h-18.018V.549h3.776zm21.197 0v21.59h14.243v3.1h-18.018V.549h3.775zM67.907 18.183c-2.793 0-5.1.54-7.983 1.803 1.923 2.042 4.667 3.32 7.713 3.32 3.134 0 5.949-1.352 7.878-3.497-2.84-1.15-4.999-1.626-7.608-1.626zm50.068-3.916h-7.561v7.951h7.109c3.34 0 5.702-1.359 5.702-4.043 0-2.786-1.836-3.908-5.25-3.908zM67.637 2.515c-5.816 0-10.53 4.654-10.53 10.395 0 1.848.488 3.584 1.345 5.087 3.402-1.548 6.103-2.224 9.455-2.224 3.138 0 5.669.598 9.031 2.01.786-1.453 1.23-3.111 1.23-4.873 0-5.74-4.715-10.395-10.53-10.395zm49.535.99h-6.758v7.113h6.538c2.864 0 5.03-.872 5.03-3.59 0-2.685-1.652-3.524-4.81-3.524z"/>
    </g>
</svg>
