<svg xmlns="http://www.w3.org/2000/svg" id="icon_48_pre" width="48" height="48" data-name="icon/48/pre" viewBox="0 0 48 48">
    <path id="사각형_129" d="M0 0h43a5 5 0 0 1 5 5v38a5 5 0 0 1-5 5H0V0z" data-name="사각형 129"/>
    <g id="icon_pre" data-name="icon/pre" transform="rotate(180 15 16.5)">
        <path id="Path" fill="#989da0" d="M8.815 17.806L.2 9.381a.657.657 0 0 1 .005-.952l.077-.06L8.805.2A.722.722 0 0 1 9.7.119l.1.078a.65.65 0 0 1 0 .947L1.687 8.92 9.8 16.854a.657.657 0 0 1-.005.952.713.713 0 0 1-.98 0z"/>
    </g>
</svg>
