<svg xmlns="http://www.w3.org/2000/svg" width="32" height="22" viewBox="0 0 32 22">
    <g fill="none" fill-rule="evenodd">
        <path d="M0 0H32V22H0z"/>
        <g>
            <path d="M0 0H22V22H0z" transform="translate(5)"/>
            <path fill="#000" d="M17.172 7.992c-.074.046-1.85 1.017-1.85 3.17.084 2.455 2.241 3.317 2.278 3.317-.037.046-.326 1.173-1.18 2.354-.68 1.018-1.433 2.044-2.577 2.044-1.088 0-1.479-.678-2.734-.678-1.349 0-1.73.678-2.762.678-1.144 0-1.953-1.081-2.67-2.09-.929-1.319-1.72-3.39-1.747-5.378-.02-1.053.186-2.089.706-2.968.735-1.228 2.046-2.062 3.478-2.09 1.098-.036 2.074.743 2.744.743.641 0 1.841-.743 3.199-.743.585.001 2.148.175 3.115 1.64zm-6.407-1.85c-.195-.963.344-1.925.846-2.539.642-.742 1.655-1.246 2.53-1.246.055.962-.299 1.906-.93 2.593-.568.742-1.544 1.301-2.446 1.191z" transform="translate(5)"/>
        </g>
    </g>
</svg>
