<svg xmlns="http://www.w3.org/2000/svg" width="164" height="22" viewBox="0 0 164 22">
    <defs>
        <linearGradient id="ufcsnixi6a" x1="26.002%" x2="74.873%" y1="20.133%" y2="79.518%">
            <stop offset="0%" stop-color="#5310CD"/>
            <stop offset="100%" stop-color="#FFA435"/>
        </linearGradient>
    </defs>
    <g fill="none" fill-rule="evenodd">
        <path fill="url(#ufcsnixi6a)" d="M11.062 0c3.75 0 7.063 1.854 9.064 4.691l-1.378.958c-1.696-2.405-4.506-3.978-7.686-3.978-5.18 0-9.381 4.177-9.381 9.329 0 5.152 4.2 9.329 9.381 9.329 3.18 0 5.99-1.573 7.686-3.978l1.378.958C18.125 20.146 14.81 22 11.062 22 4.952 22 0 17.075 0 11S4.953 0 11.062 0zm0 2.344c2.95 0 5.558 1.459 7.132 3.69l-1.377.96c-1.27-1.802-3.374-2.979-5.755-2.979-3.88 0-7.024 3.127-7.024 6.985 0 3.858 3.145 6.985 7.024 6.985 2.381 0 4.485-1.178 5.756-2.98l1.376.96c-1.574 2.232-4.182 3.691-7.132 3.691-4.808 0-8.705-3.875-8.705-8.656 0-4.78 3.897-8.656 8.705-8.656zm0 2.331c2.156 0 4.06 1.066 5.211 2.697l-1.391.97c-.844-1.196-2.24-1.977-3.82-1.977-2.574 0-4.661 2.075-4.661 4.635 0 2.56 2.087 4.635 4.661 4.635 1.58 0 2.976-.781 3.82-1.976l1.392.968c-1.15 1.631-3.056 2.698-5.212 2.698-3.513 0-6.36-2.832-6.36-6.325 0-3.493 2.847-6.325 6.36-6.325zm0 2.325c1.363 0 2.568.674 3.295 1.706l-1.392.969c-.42-.596-1.115-.985-1.903-.985C9.78 8.69 8.74 9.724 8.74 11s1.04 2.31 2.323 2.31c.788 0 1.484-.39 1.904-.986l1.391.97C13.63 14.326 12.425 15 11.062 15c-2.221 0-4.022-1.791-4.022-4s1.8-4 4.022-4z"/>
        <path fill="#000" fill-rule="nonzero" d="M78.504.09c1.426 0 2.853.23 4.28.692.651.189 1.424.504 2.318.946l.34.172v2.689c-.53-.39-1.064-.737-1.604-1.039-.54-.301-1.075-.55-1.605-.745-1.223-.497-2.466-.745-3.73-.745-1.589 0-3.317.346-4.357 1.038-1.06.71-1.59 1.553-1.59 2.529 0 1.42 1.203 2.485 3.608 3.195 1.12.337 2.65.66 3.761.971l3.378.946c2.425 1.011 3.638 2.52 3.638 4.525 0 1.953-.867 3.523-2.599 4.713-1.526 1.033-3.391 1.59-5.596 1.667l-.001.01h-.786c-3.92 0-5.735-.84-10.432-3.077l-1.249-.597-.39-.184-.118-.054c-2.007 2.538-5.121 4.169-8.619 4.169-3.4 0-6.437-1.54-8.448-3.959-.246.126-.5.257-.76.394l-1.957 1.04-.326.17c-.53.273-.991.5-1.44.707-1.775.815-4.169 1.27-5.741 1.37l-.175.01-.153.004-1.345.005v.002l-.035-.002-.181.002v-.006h-.043c-1.683-.077-4.16-.873-6.124-2.192-2.903-1.95-4.637-4.857-4.637-8.68 0-3.872 1.444-6.741 3.994-8.567C31.774.781 34.338.09 36.806.09c2.712 0 5.07.766 7.037 2.294l.128.101-1.293 1.6c-1.616-1.294-3.56-1.94-5.872-1.94-2.063 0-4.209.578-5.82 1.732-2.006 1.436-3.137 3.682-3.137 6.9 0 3.101 1.366 5.391 3.728 6.977 1.688 1.134 3.859 1.815 5.14 1.846h.027l1.41-.006.054-.001c1.331-.062 3.528-.45 5.147-1.194l.254-.118c.384-.182.792-.386 1.259-.629l.323-.17 1.58-.84c.261-.139.516-.272.765-.4C46.678 14.685 46.19 12.9 46.19 11 46.19 4.974 51.098.09 57.151.09 63.205.09 68.113 4.973 68.113 11c0 1.802-.439 3.501-1.216 5l1.72.82c4.243 2.009 5.784 2.756 9.177 2.78h.582c1.578-.021 3.32-.3 4.394-.981 1.243-.781 1.864-1.802 1.864-3.062 0-1.526-1.182-2.689-3.546-3.487-1.14-.302-2.676-.613-3.776-.932-1.1-.32-2.201-.63-3.302-.932-2.384-.958-3.576-2.431-3.576-4.42 0-1.668.754-3.025 2.262-4.073C74.245.631 76.181.09 78.504.09zm20.613.377c4.932 0 6.948 1.966 6.948 5.283 0 2.107-.87 3.67-3.253 4.493l-.252.082v.154c2.668.491 4.405 1.996 4.405 5.037 0 3.396-2.318 5.88-6.982 5.985l-.308.003h-9.367V.467h8.809zm20.73 0l8.252 21.037h-3.41l-6.592-17.483-6.592 17.483h-3.466L116.36.467h3.488zm14.129 0v18.396h12.034v2.641h-15.224V.467h3.19zm17.91 0v18.396h12.035v2.641h-15.224V.467h3.19zM57.38 15.493c-2.36 0-4.308.459-6.745 1.535 1.624 1.74 3.943 2.829 6.517 2.829 2.649 0 5.027-1.152 6.657-2.98-2.4-.98-4.224-1.384-6.43-1.384zm42.306-3.337h-6.39v6.775h6.008c2.823 0 4.818-1.158 4.818-3.446 0-2.373-1.55-3.329-4.436-3.329zM57.151 2.143c-4.914 0-8.898 3.966-8.898 8.857 0 1.574.413 3.053 1.137 4.334 2.874-1.32 5.156-1.895 7.989-1.895 2.653 0 4.791.51 7.633 1.713.663-1.238 1.037-2.652 1.037-4.152 0-4.891-3.983-8.857-8.898-8.857zm41.856.843h-5.711v6.061h5.525c2.42 0 4.25-.743 4.25-3.06 0-2.287-1.396-3.001-4.064-3.001z"/>
    </g>
</svg>
