<svg xmlns="http://www.w3.org/2000/svg" width="117" height="16" viewBox="0 0 117 16">
    <defs>
        <linearGradient id="fnavbdlxja" x1="26.143%" x2="74.726%" y1="20.133%" y2="79.518%">
            <stop offset="0%" stop-color="#5310CD"/>
            <stop offset="100%" stop-color="#FFA435"/>
        </linearGradient>
    </defs>
    <g fill="none" fill-rule="evenodd">
        <path fill="url(#fnavbdlxja)" d="M7.893 0c2.675 0 5.04 1.327 6.467 3.357l-.982.686c-1.21-1.721-3.216-2.847-5.485-2.847-3.697 0-6.694 2.989-6.694 6.676 0 3.687 2.997 6.676 6.694 6.676 2.27 0 4.274-1.126 5.485-2.847l.982.686c-1.427 2.03-3.792 3.357-6.467 3.357C3.534 15.744 0 12.22 0 7.872S3.534 0 7.893 0zm0 1.677c2.106 0 3.966 1.045 5.09 2.642L12 5.005c-.907-1.29-2.408-2.132-4.107-2.132-2.768 0-5.012 2.238-5.012 4.999 0 2.76 2.244 4.999 5.012 4.999 1.7 0 3.2-.843 4.107-2.132l.982.686C11.86 13.022 10 14.067 7.893 14.067c-3.43 0-6.211-2.774-6.211-6.195 0-3.421 2.78-6.195 6.211-6.195zm0 1.669c1.539 0 2.898.763 3.72 1.93l-.995.693c-.602-.855-1.598-1.414-2.725-1.414-1.837 0-3.326 1.485-3.326 3.317s1.49 3.317 3.326 3.317c1.128 0 2.124-.56 2.726-1.415l.993.694c-.82 1.167-2.18 1.93-3.719 1.93-2.506 0-4.538-2.026-4.538-4.526s2.032-4.526 4.538-4.526zm0 1.664c.973 0 1.832.482 2.351 1.22l-.993.694c-.3-.427-.796-.705-1.358-.705-.915 0-1.657.74-1.657 1.653s.742 1.653 1.657 1.653c.562 0 1.059-.278 1.358-.705l.994.693c-.519.739-1.379 1.221-2.352 1.221-1.585 0-2.87-1.281-2.87-2.862 0-1.58 1.285-2.862 2.87-2.862z"/>
        <path fill="#FFF" fill-rule="nonzero" d="M56.016.064c1.017 0 2.035.165 3.053.495.458.134 1 .355 1.625.663l.273.138v1.924c-.378-.28-.76-.527-1.145-.743-.386-.216-.767-.394-1.145-.534-.873-.355-1.76-.533-2.661-.533-1.135 0-2.368.248-3.11.743-.756.508-1.134 1.111-1.134 1.81 0 1.016.858 1.778 2.574 2.286.8.241 1.891.473 2.684.696l2.41.676c1.73.724 2.596 1.803 2.596 3.239 0 1.397-.618 2.521-1.854 3.372-1.09.74-2.42 1.138-3.995 1.193v.007h-.56c-2.797 0-4.093-.6-7.444-2.201l-.89-.428-.279-.132-.084-.038c-1.433 1.817-3.655 2.983-6.15 2.983-2.425 0-4.593-1.102-6.028-2.832-.175.089-.356.183-.542.281l-1.397.745-.233.121c-.378.196-.707.358-1.028.506-1.266.583-2.974.91-4.096.98l-.125.008-.109.002-.96.004v.001l-.02-.001-.134.001v-.005l-.078-.001c-1.2-.068-2.94-.635-4.322-1.567-2.072-1.395-3.309-3.475-3.309-6.212 0-2.77 1.031-4.823 2.85-6.13C22.672.559 24.502.064 26.263.064c1.935 0 3.618.548 5.021 1.642l.091.072-.923 1.145c-1.153-.927-2.54-1.39-4.19-1.39-1.472 0-3.003.415-4.153 1.24-1.43 1.029-2.237 2.636-2.237 4.938 0 2.22.974 3.859 2.66 4.994 1.204.811 2.753 1.299 3.667 1.32h.028l.997-.004h.039c.95-.045 2.517-.323 3.673-.855l.18-.084c.275-.13.566-.276.9-.45l.23-.121 1.128-.603c.186-.099.369-.195.547-.287-.614-1.111-.963-2.39-.963-3.749 0-4.312 3.502-7.808 7.822-7.808S48.6 3.56 48.6 7.872c0 1.29-.313 2.507-.868 3.579l1.228.586c3.028 1.438 4.127 1.973 6.548 1.99h.359c1.14-.01 2.412-.208 3.191-.703.887-.559 1.33-1.289 1.33-2.19 0-1.093-.842-1.925-2.53-2.497-.814-.215-1.909-.438-2.694-.666-.785-.229-1.57-.451-2.356-.667-1.7-.686-2.552-1.74-2.552-3.163 0-1.194.538-2.165 1.615-2.915C52.977.451 54.358.064 56.016.064zm14.708.27c3.52 0 4.958 1.407 4.958 3.78 0 1.496-.61 2.608-2.278 3.2l-.223.075v.11c1.903.352 3.143 1.429 3.143 3.604 0 2.417-1.635 4.188-4.924 4.282l-.278.004h-6.684V.334h6.286zm14.792 0l5.888 15.055H88.97L84.267 2.877 79.563 15.39H77.09L83.026.334h2.49zm10.081 0V13.5h8.587v1.89H93.321V.334h2.276zm12.78 0V13.5h8.587v1.89h-10.863V.334h2.276zM40.942 11.087c-1.683 0-3.073.329-4.811 1.098 1.157 1.247 2.812 2.025 4.649 2.025 1.89 0 3.586-.824 4.75-2.132-1.713-.701-3.014-.99-4.588-.99zM71.13 8.7H66.57v4.848h4.287c2.014 0 3.438-.828 3.438-2.465 0-1.699-1.107-2.383-3.166-2.383zM40.78 1.534c-3.506 0-6.348 2.837-6.348 6.338 0 1.127.294 2.185.81 3.102 2.052-.945 3.68-1.357 5.701-1.357 1.893 0 3.419.365 5.447 1.226.472-.886.74-1.897.74-2.971 0-3.5-2.843-6.338-6.35-6.338zm29.866.603H66.57v4.337h3.943c1.726 0 3.032-.532 3.032-2.189 0-1.637-.996-2.148-2.9-2.148z"/>
    </g>
</svg>
